HIERARCHY
ROOT hip
{
	OFFSET	0.00  0.00  0.00 
	CHANNELS 6 Xposition Yposition Zposition Xrotation Zrotation Yrotation
	JOINT abdomen
	{
		OFFSET	0.000000 0.000000 0.000000
		CHANNELS 3 Xrotation Zrotation Yrotation
		JOINT chest
		{
			OFFSET	0.000000 5.018152 -1.882228
			CHANNELS 3 Xrotation Zrotation Yrotation
			JOINT neckDummy
			{
				OFFSET	0.000000 8.316447 0.784897
				CHANNELS 3 Xrotation Yrotation Zrotation
				JOINT neck
				{
					OFFSET	0.000000 2.280413 -0.392801
					CHANNELS 3 Xrotation Zrotation Yrotation
					JOINT head
					{
						OFFSET	0.000000 3.496879 0.529469
						CHANNELS 3 Xrotation Zrotation Yrotation
						JOINT figureHair
						{
							OFFSET	0.000000 4.699570 0.720622
							CHANNELS 3 Zrotation Yrotation Xrotation
							End Site
							{
								OFFSET 0.000000 -6.419331 0.000000
							}
						}
					}
				}
			}
			JOINT lCollar
			{
				OFFSET	0.599237 8.316447 0.784897
				CHANNELS 3 Yrotation Zrotation Xrotation
				JOINT lShldr
				{
					OFFSET	6.421198 0.010146 -0.332128
					CHANNELS 3 Zrotation Yrotation Xrotation
					JOINT lForeArm
					{
						OFFSET	10.552783 0.025574 0.125508
						CHANNELS 3 Yrotation Zrotation Xrotation
						JOINT lHand
						{
							OFFSET	11.035963 0.319619 0.041520
							CHANNELS 3 Zrotation Yrotation Xrotation
							End Site
							{
								OFFSET 10.353753 0.000000 0.000000
							}
						}
					}
				}
			}
			JOINT rCollar
			{
				OFFSET	-0.599237 8.316447 0.784897
				CHANNELS 3 Yrotation Zrotation Xrotation
				JOINT rShldr
				{
					OFFSET	-6.421198 0.010146 -0.332128
					CHANNELS 3 Zrotation Yrotation Xrotation
					JOINT rForeArm
					{
						OFFSET	-10.552783 0.025574 0.125508
						CHANNELS 3 Yrotation Zrotation Xrotation
						JOINT rHand
						{
							OFFSET	-11.035963 0.319619 0.041520
							CHANNELS 3 Zrotation Yrotation Xrotation
							End Site
							{
								OFFSET -10.353753 0.000000 0.000000
							}
						}
					}
				}
			}
		}
	}
	JOINT lThigh
	{
		OFFSET	4.500466 -6.400484 -1.832696
		CHANNELS 3 Xrotation Zrotation Yrotation
		JOINT lShin
		{
			OFFSET	-1.359117 -18.918689 1.179887
			CHANNELS 3 Xrotation Zrotation Yrotation
			JOINT lFoot
			{
				OFFSET	-0.652380 -17.215186 -0.312137
				CHANNELS 3 Xrotation Yrotation Zrotation
				End Site
				{
					OFFSET 0.000000 0.000000 10.353752
				}
			}
		}
	}
	JOINT rThigh
	{
		OFFSET	-4.500466 -6.400484 -1.832696
		CHANNELS 3 Xrotation Zrotation Yrotation
		JOINT rShin
		{
			OFFSET	1.359117 -18.918689 1.179887
			CHANNELS 3 Xrotation Zrotation Yrotation
			JOINT rFoot
			{
				OFFSET	0.652380 -17.215186 -0.312137
				CHANNELS 3 Xrotation Yrotation Zrotation
				End Site
				{
					OFFSET 0.000000 0.000000 10.353752
				}
			}
		}
	}
}
MOTION
Frames:     15
Frame Time: 0.500000
0.000000 42.014908 0.240040 -2.372530 0.628675 2.030900 0.000000 0.000000 0.000000 0.000000 0.000000 0.000000 0.000000 0.000000 0.000000 0.000000 0.000000 -3.000000 7.120450 1.366530 2.908880 0.000000 0.000000 0.000000 14.689500 -0.245973 1.906740 -33.469383 -43.360764 22.433479 -22.134315 7.889639 3.218908 5.969490 -0.173112 0.175734 -11.342000 6.551700 -1.955400 35.486084 30.511011 15.947600 29.945442 -11.056549 -3.018097 -5.797487 13.400004 3.564926 -22.953899 1.423120 -0.929701 44.945999 0.829438 -4.777100 24.152800 13.364600 -0.895056 -6.646620 1.362870 -2.688330 36.954201 -2.329610 0.947528 18.124201 2.606590 0.575827 
0.000000 42.014908 0.240040 -2.372530 0.628675 2.030900 0.000000 0.000000 0.000000 0.000000 0.000000 0.000000 0.000000 0.000000 0.000000 0.000000 0.000000 -3.000000 7.120450 1.366530 2.908880 0.000000 0.000000 0.000000 14.689500 -0.245973 1.906740 -32.412628 -43.287468 21.653028 -22.742735 7.175324 3.298650 5.750110 -0.189544 0.175017 -11.342000 6.551700 -1.955400 34.452003 30.555279 15.418316 30.653244 -10.861850 -2.874906 -5.797487 13.400004 3.564926 -23.205362 1.948239 -0.895655 46.168327 0.483735 -4.813850 24.152800 13.364600 -0.895056 -6.231851 0.435773 -2.724555 36.640354 -2.309372 0.939893 18.124201 2.606590 0.575827 
0.000000 42.014908 0.240040 -2.372530 0.628675 2.030900 0.000000 0.000000 0.000000 0.000000 0.000000 0.000000 0.000000 0.000000 0.000000 0.000000 0.000000 -3.000000 7.120450 1.366530 2.908880 0.000000 0.000000 0.000000 14.689500 -0.245973 1.906740 -31.394445 -43.319481 20.889271 -23.612146 6.141881 3.416999 5.435650 -0.213098 0.173989 -11.342000 6.551700 -1.955400 33.523209 30.606539 14.943331 31.622921 -10.612768 -2.678019 -5.797487 13.400004 3.564926 -23.460300 2.532460 -0.858089 47.307400 0.056945 -4.854070 24.152800 13.364600 -0.895056 -5.752990 -0.553698 -2.763360 36.289284 -2.319940 0.932482 18.124201 2.606590 0.575827 
0.000000 42.014908 0.240040 -2.372530 0.628675 2.030900 0.000000 0.000000 0.000000 0.000000 0.000000 0.000000 0.000000 0.000000 0.000000 0.000000 0.000000 -3.000000 7.120450 1.366530 2.908880 0.000000 0.000000 0.000000 14.689499 -0.245973 1.906740 -31.084578 -43.684910 20.616243 -24.539686 5.038566 3.543530 5.060052 -0.241232 0.172760 -11.342000 6.551700 -1.955400 33.477306 30.649212 14.921349 32.654888 -10.348804 -2.468437 -5.797487 13.400004 3.564926 -23.574230 2.976232 -0.830692 47.489929 -0.397125 -4.883142 24.152800 13.364600 -0.895056 -5.334725 -1.178852 -2.788580 35.920662 -2.333614 0.924787 18.124201 2.606590 0.575827 
0.000000 42.014908 0.240040 -2.372530 0.628675 2.030900 0.000000 0.000000 0.000000 0.000000 0.000000 0.000000 0.000000 0.000000 0.000000 0.000000 0.000000 -3.000000 7.120451 1.366530 2.908881 0.000000 0.000000 0.000000 14.689502 -0.245973 1.906740 -31.263577 -44.217861 20.690523 -25.283052 4.169559 3.639661 4.660697 -0.271145 0.171455 -11.342001 6.551700 -1.955400 34.013855 30.666000 15.197815 33.531990 -10.102329 -2.291206 -5.797487 13.400004 3.564926 -23.543259 3.247405 -0.816069 46.875343 -0.809994 -4.902434 24.152803 13.364603 -0.895056 -5.017415 -1.444023 -2.801429 35.508484 -2.297246 0.914428 18.124205 2.606590 0.575827 
0.000000 42.014908 0.240040 -2.372530 0.628675 2.030900 0.000000 0.000000 0.000000 0.000000 0.000000 0.000000 0.000000 0.000000 0.000000 0.000000 0.000000 -3.000000 7.120452 1.366530 2.908881 0.000000 0.000000 0.000000 14.689503 -0.245973 1.906740 -31.486504 -44.645199 20.812943 -25.599953 3.839037 3.666814 4.274960 -0.300038 0.170194 -11.342001 6.551700 -1.955400 34.554169 30.638607 15.475359 34.037067 -9.905714 -2.191370 -5.797487 13.400004 3.564926 -23.398359 3.350773 -0.814349 45.888161 -1.102786 -4.917025 24.152805 13.364604 -0.895056 -4.825661 -1.456122 -2.807251 35.026764 -2.157688 0.899021 18.124207 2.606590 0.575827 
0.000000 42.014908 0.240040 -2.372530 0.628675 2.030900 0.000000 0.000000 0.000000 0.000000 0.000000 0.000000 0.000000 0.000000 0.000000 0.000000 0.000000 -3.000001 7.120453 1.366531 2.908882 0.000000 0.000000 0.000000 14.689506 -0.245973 1.906740 -31.308413 -44.693783 20.684334 -25.248085 4.351180 3.586411 3.940221 -0.325111 0.169099 -11.342004 6.551701 -1.955400 34.519569 30.548725 15.456600 33.952961 -9.791330 -2.213975 -5.797487 13.400004 3.564926 -23.170500 3.291130 -0.825661 44.952900 -1.196620 -4.931990 24.152811 13.364607 -0.895056 -4.784060 -1.322060 -2.811390 34.449501 -1.861790 0.876185 18.124210 2.606591 0.575827 
0.000000 42.014908 0.240040 -2.372530 0.628675 2.030900 0.000000 0.000000 0.000000 0.000000 0.000000 0.000000 0.000000 0.000000 0.000000 0.000000 0.000000 -3.000001 7.120454 1.366531 2.908882 0.000000 0.000000 0.000000 14.689507 -0.245973 1.906741 -30.445856 -44.189816 20.113522 -24.107302 5.853706 3.380398 3.693857 -0.343564 0.168294 -11.342006 6.551702 -1.955400 33.535923 30.390486 14.949363 33.161789 -9.782351 -2.383244 -5.797487 13.400004 3.564926 -22.895107 3.082673 -0.848954 44.403038 -1.042569 -4.950239 24.152815 13.364609 -0.895057 -4.903871 -1.129750 -2.817499 33.787605 -1.392849 0.845593 18.124212 2.606591 0.575827 
0.000000 42.014908 0.240040 -2.372530 0.628675 2.030900 0.000000 0.000000 0.000000 0.000000 0.000000 0.000000 0.000000 0.000000 0.000000 0.000000 0.000000 -3.000001 7.120453 1.366531 2.908882 0.000000 0.000000 0.000000 14.689506 -0.245973 1.906741 -29.261383 -43.356884 19.341358 -22.546074 7.868508 3.112820 3.573247 -0.352599 0.167899 -11.342005 6.551702 -1.955400 32.047318 30.207813 14.182285 31.942766 -9.865157 -2.640121 -5.797487 13.400004 3.564926 -22.625484 2.777215 -0.878465 44.207970 -0.711505 -4.966013 24.152813 13.364608 -0.895056 -5.142989 -0.891114 -2.822473 33.199650 -0.879945 0.815144 18.124210 2.606591 0.575827 
0.000000 42.014908 0.240040 -2.372530 0.628675 2.030900 0.000000 0.000000 0.000000 0.000000 0.000000 0.000000 0.000000 0.000000 0.000000 0.000000 0.000000 -3.000001 7.120453 1.366531 2.908882 0.000000 0.000000 0.000000 14.689505 -0.245973 1.906741 -28.279041 -42.517921 18.716705 -21.055035 9.761018 2.868252 3.615769 -0.349414 0.168038 -11.342004 6.551702 -1.955400 30.702404 30.057081 13.489209 30.674387 -10.016932 -2.904732 -5.797487 13.400004 3.564926 -22.419394 2.435972 -0.907253 44.246067 -0.304252 -4.971389 24.152811 13.364607 -0.895056 -5.445970 -0.599079 -2.821515 32.881119 -0.488609 0.794791 18.124210 2.606591 0.575827 
0.000000 42.014908 0.240040 -2.372530 0.628675 2.030900 0.000000 0.000000 0.000000 0.000000 0.000000 0.000000 0.000000 0.000000 0.000000 0.000000 0.000000 -3.000001 7.120452 1.366531 2.908881 0.000000 0.000000 0.000000 14.689504 -0.245973 1.906740 -28.022881 -41.995865 18.588425 -20.124809 10.896668 2.731265 3.858800 -0.331210 0.168833 -11.342003 6.551702 -1.955400 30.149837 29.994667 13.203972 29.735153 -10.214857 -3.097200 -5.797487 13.400004 3.564926 -22.334600 2.120160 -0.928377 44.395699 0.078368 -4.958440 24.152809 13.364606 -0.895056 -5.757370 -0.246569 -2.809830 33.027500 -0.384365 0.794487 18.124210 2.606591 0.575827 
0.000000 42.014908 0.240040 -2.372530 0.628675 2.030900 0.000000 0.000000 0.000000 0.000000 0.000000 0.000000 0.000000 0.000000 0.000000 0.000000 0.000000 -3.000000 7.120452 1.366530 2.908881 0.000000 0.000000 0.000000 14.689503 -0.245973 1.906740 -28.840822 -42.017170 19.186895 -20.094618 10.839491 2.759376 4.314497 -0.297077 0.170323 -11.342002 6.551702 -1.955400 30.829674 30.057493 13.553061 29.395840 -10.436814 -3.160618 -5.797487 13.400004 3.564926 -22.406843 1.876740 -0.936962 44.555065 0.358709 -4.922557 24.152807 13.364605 -0.895056 -6.032187 0.164946 -2.784627 33.752747 -0.673066 0.820354 18.124208 2.606591 0.575827 
0.000000 42.014908 0.240040 -2.372530 0.628675 2.030900 0.000000 0.000000 0.000000 0.000000 0.000000 0.000000 0.000000 0.000000 0.000000 0.000000 0.000000 -3.000000 7.120451 1.366530 2.908881 0.000000 0.000000 0.000000 14.689501 -0.245973 1.906740 -30.337727 -42.399662 20.242817 -20.660223 9.997224 2.895208 4.889030 -0.254042 0.172201 -11.342001 6.551702 -1.955400 32.301147 30.199993 14.309638 29.468512 -10.664310 -3.135856 -5.797487 13.400004 3.564926 -22.577883 1.690732 -0.936990 44.703228 0.558410 -4.873065 24.152805 13.364603 -0.895056 -6.270919 0.600468 -2.751513 34.826515 -1.207831 0.862300 18.124205 2.606591 0.575827 
0.000000 42.014908 0.240040 -2.372530 0.628675 2.030900 0.000000 0.000000 0.000000 0.000000 0.000000 0.000000 0.000000 0.000000 0.000000 0.000000 0.000000 -3.000000 7.120451 1.366530 2.908881 0.000000 0.000000 0.000000 14.689500 -0.245973 1.906740 -32.027027 -42.910282 21.425417 -21.441252 8.877131 3.067899 5.477768 -0.209944 0.174126 -11.342000 6.551701 -1.955400 34.014011 30.367138 15.190519 29.709984 -10.879964 -3.075541 -5.797487 13.400004 3.564926 -22.779831 1.540466 -0.933415 44.837452 0.711746 -4.820930 24.152803 13.364602 -0.895056 -6.479599 1.018961 -2.717134 35.980019 -1.812804 0.908397 18.124203 2.606591 0.575827 
0.000000 42.014908 0.240040 -2.372530 0.628675 2.030900 0.000000 0.000000 0.000000 0.000000 0.000000 0.000000 0.000000 0.000000 0.000000 0.000000 0.000000 -3.000000 7.120450 1.366530 2.908880 0.000000 0.000000 0.000000 14.689500 -0.245973 1.906740 -33.469383 -43.360764 22.433479 -22.134315 7.889639 3.218908 5.969490 -0.173112 0.175734 -11.342000 6.551700 -1.955400 35.486084 30.511011 15.947600 29.945442 -11.056549 -3.018097 -5.797487 13.400004 3.564926 -22.953899 1.423120 -0.929701 44.945999 0.829438 -4.777100 24.152800 13.364600 -0.895056 -6.646620 1.362870 -2.688330 36.954201 -2.329610 0.947528 18.124201 2.606590 0.575827 
